mastitorrents.com
 
http://mastitorrents.com/forums/index.php

Banner: Max India Productions 
Cast: Aadi, Isha Chawla, Brahmanandam, Dev Gill, Sindhu Tolani, Naga Babu, Jayasudha and others 
Music: Anup Rubens 
Cinematography: Chota K Naidu 
Editing: Goutham Raju 
Story, screenplay, direction: K Vijayabhaskar 
Producer: K Atchi Reddy  
Release date: 25/02/2011

Format                           : MPEG-4 
Format profile                   : Base Media / Version 2 
Codec ID                         : mp42 
File size                        : 688 MiB 
Duration                         : 2h 25mn
 Overall bit rate                 : 661 Kbps 
Encoded date                     : UTC 2011-05-12 03:39:15 
Tagged date                      : UTC 2011-05-12 05:28:23 
Writing application              : HandBrake 0.9.5 2011010300 
 Video ID                               : 1 
Format                           : AVC 
Format/Info                      : Advanced 
Video Codec Format profile                   : Main@L2.1 
Format settings, CABAC           : Yes 
Format settings, ReFrames        : 4 frames 
Codec ID                         : avc1 
Codec ID/Info                    : Advanced 
Video Coding Duration                         : 2h 25mn 
Bit rate mode                    : Variable 
Bit rate                         : 510 Kbps 
Width                            : 638 pixels 
Height                           : 262 pixels 
Display aspect ratio             : 2.40:1 
Original display aspect ratio    : 2.40:1
 Frame rate mode                  : Constant 
Frame rate                       : 15.000 fps Color space                      : YUV Chroma subsampling               : 4:2:0 Bit depth                        : 8 bits Scan type                        : Progressive Bits/(Pixel*Frame)               : 0.203 Stream size                      : 532 MiB (77%) 
Writing library                  : x264 core 112  
Encoded date                     : UTC 2011-05-12 03:39:15 Tagged date                      : UTC 2011-05-12 05:28:23 
Color primaries                  : BT.601-6 525, BT.1358 525, BT.1700 NTSC, SMPTE 170M 
Transfer characteristics         : BT.709-5, BT.1361 Matrix coefficients              : BT.601-6 525, BT.1358 525, BT.1700 NTSC, SMPTE 170M  Audio ID                               : 2 Format                           : MPEG 
Audio Format version                   : Version 2
 Format profile                   : Layer 3 Codec ID                         : 69
 Duration                         : 2h 25mn 
Bit rate mode                    : Variable
 Bit rate                         : 148 Kbps 
Maximum bit rate                 : 159 Kbps 
Channel(s)                       : 1 channel 
Sampling rate                    : 22.05 KHz 
Compression mode                 : Lossy 
Stream size                      : 154 MiB (22%)
 Encoded date                     : UTC 2011-05-12 03:39:15
 Tagged date                      : UTC 2011-05-12 05:28:22